# xmcd
#
# Track frame offsets:
#	150
#	7028
#	13719
#	26988
#	36962
#	45644
#	54712
#	61000
#	70374
#	85120
#	92347
#	98403
#	104915
#	115515
#	128286
#	132789
#	141424
#	153163
#	162306
#	173168
#	185732
#	194586
#
# Disc length: 2718 seconds
#
# Revision: 0
# Processed by: cddbd v1.4PL0 Copyright (c) Steve Scherf et al.
# Submitted via: dBpowerAMP V4.0
#
DISCID=270a9c16
DTITLE=Lo-Lite - Comics
DYEAR=1900
DGENRE=Blues
TTITLE0=le Twist
TTITLE1=Hotrod Shooter
TTITLE2=Ugh-Ugh
TTITLE3=Cut-Up
TTITLE4=die Hard
TTITLE5=She-Li
TTITLE6=Nairobi flight
TTITLE7=Hoogarooga
TTITLE8=White Mash
TTITLE9=Hey!
TTITLE10=G-Up
TTITLE11=Hi-Heart
TTITLE12=Replay
TTITLE13=Something's Sorry
TTITLE14=Sell Out
TTITLE15=Moonshine
TTITLE16=Party Flea
TTITLE17=Your Move
TTITLE18=Too Bad
TTITLE19=Clean Spot
TTITLE20=Fulla Mouth
TTITLE21=Holy Rooster!
EXTD=lo-lite - comics
EXTT0=
EXTT1=
EXTT2=
EXTT3=
EXTT4=
EXTT5=
EXTT6=
EXTT7=
EXTT8=
EXTT9=
EXTT10=
EXTT11=
EXTT12=
EXTT13=
EXTT14=
EXTT15=
EXTT16=
EXTT17=
EXTT18=
EXTT19=
EXTT20=
EXTT21=
PLAYORDER=
